<mxfile host="app.diagrams.net" modified="2023-11-08T14:36:21.809Z" agent="Mozilla/5.0 (Windows NT 10.0; Win64; x64) AppleWebKit/537.36 (KHTML, like Gecko) Chrome/119.0.0.0 Safari/537.36" version="22.0.8" etag="rrnoSRiCJEX3NqvpyaGz" type="github">
  <diagram name="페이지-1" id="WGn8i0g4EXVJDT40lTBc">
    <mxGraphModel>
      <root>
        <mxCell id="0" />
        <mxCell id="1" parent="0" />
      </root>
    </mxGraphModel>
  </diagram>
</mxfile>
